# xmcd
#
# Track frame offsets:
#	150
#	14170
#	35005
#	61025
#	77492
#	98327
#	109185
#	127347
#	143812
#	165227
#	188962
#
# Disc length: 2812 seconds
#
# Revision: 1
# Processed by: cddbd v1.5PL3 Copyright (c) Steve Scherf et al.
# Submitted via: CDex 1.50Beta5
#
DISCID=8c0afa0b
DTITLE=斎藤誠 - 笑顔に御注意。
DYEAR=1900
DGENRE=
TTITLE0=イヤでもたのむよ
TTITLE1=愛してるって言って
TTITLE2=OUR LOVE
TTITLE3=I LIKE YOU
TTITLE4=風を抱いて走れ
TTITLE5=笑顔に御注意。
TTITLE6=遠い日の憧れは
TTITLE7=きっといつか
TTITLE8=クリスマスの恋人達
TTITLE9=夢を聞かせて
TTITLE10=悲しい笑顔
EXTD=
EXTT0=
EXTT1=
EXTT2=
EXTT3=
EXTT4=
EXTT5=
EXTT6=
EXTT7=
EXTT8=
EXTT9=
EXTT10=
PLAYORDER=
